<svg id="Group_236" data-name="Group 236" xmlns="http://www.w3.org/2000/svg" viewBox="0 0 259.563 75.054">
  <defs>
    <style>
      .cls-1 {
        fill: #fff;
      }
    </style>
  </defs>
  <g id="Group_232" data-name="Group 232">
    <path id="Path_1152" data-name="Path 1152" class="cls-1" d="M86.089,290.1a12.189,12.189,0,1,0,12.189,12.189A12.2,12.2,0,0,0,86.089,290.1Zm0,15.786a3.58,3.58,0,1,1,3.58-3.58,3.585,3.585,0,0,1-3.58,3.58Zm0,0" transform="translate(-60.995 -239.441)"/>
    <path id="Path_1153" data-name="Path 1153" class="cls-1" d="M26.264,0a2.873,2.873,0,0,0-2.2,1.03L.664,28.988A2.964,2.964,0,0,0,0,30.839V58.8A2.866,2.866,0,0,0,2.864,61.66H5.9a2.879,2.879,0,0,0,2.864-2.427c1.118-8.626,8-13.97,16.327-13.97s15.192,5.344,16.327,13.97a2.838,2.838,0,0,0,2.864,2.427h3.038A2.866,2.866,0,0,0,50.187,58.8V2.864A2.866,2.866,0,0,0,47.323,0Zm18.2,22.946A2.866,2.866,0,0,1,41.6,25.81H17.008a2.864,2.864,0,0,1-2.2-4.7L26.753,6.775a2.873,2.873,0,0,1,2.2-1.03H41.578a2.866,2.866,0,0,1,2.864,2.864V22.946Zm0,0"/>
  </g>
  <g id="Group_233" data-name="Group 233" transform="translate(204.556 22.422)">
    <path id="Path_1154" data-name="Path 1154" class="cls-1" d="M1284.014,304.7a10.923,10.923,0,1,0,10.914,10.932,10.922,10.922,0,0,0-10.914-10.932Zm0,14.214a3.292,3.292,0,1,1,3.283-3.3,3.309,3.309,0,0,1-3.283,3.3Zm0,0" transform="translate(-1255.341 -273.914)"/>
    <path id="Path_1155" data-name="Path 1155" class="cls-1" d="M1171.4,170.258V142.841l20.274,1.013L1185,138.563a20.394,20.394,0,0,0-12.782-4.453h-.821V128.4h1.362a24.874,24.874,0,0,1,15.419,5.361l13.953,11.054,18.755,4.628a5.356,5.356,0,0,1,4.086,5.186v5.326a1.424,1.424,0,0,1,1.432,1.414v7.072a1.83,1.83,0,0,1-1.833,1.816h-10.582c.035-.454.14-.891.14-1.345a13.91,13.91,0,0,0-27.818,0,11.314,11.314,0,0,0,.157,1.345Z" transform="translate(-1171.4 -128.4)"/>
  </g>
  <g id="Group_234" data-name="Group 234" transform="translate(55.636 9.569)">
    <path id="Path_1156" data-name="Path 1156" class="cls-1" d="M329.9,87.839l-2.672,5.029v16.869H318.6V54.8h8.626V78.741l11.3-23.941h8.626l-12,24.482,12.014,30.455H338.3Z" transform="translate(-318.6 -54.8)"/>
    <path id="Path_1157" data-name="Path 1157" class="cls-1" d="M521.81,109.737H513.1l-1.484-9.971h-10.6l-1.484,9.971H491.6L500.384,54.8h12.643Zm-19.7-17.41h8.312l-4.156-27.783Z" transform="translate(-461.39 -54.8)"/>
    <path id="Path_1158" data-name="Path 1158" class="cls-1" d="M705.639,109.737c-.472-1.414-.786-2.27-.786-6.741V94.37c0-5.1-1.729-6.985-5.658-6.985h-2.969v22.369H687.6V54.8h13.027c8.941,0,12.8,4.156,12.8,12.643v4.313c0,5.658-1.8,9.342-5.658,11.141,4.313,1.8,5.728,5.972,5.728,11.7v8.469c0,2.672.07,4.628.943,6.671h-8.8Zm-9.412-47.079V79.527h3.37c3.213,0,5.186-1.414,5.186-5.815V68.3c0-3.929-1.327-5.658-4.4-5.658h-4.156Z" transform="translate(-623.163 -54.8)"/>
    <path id="Path_1159" data-name="Path 1159" class="cls-1" d="M886.256,109.737c-.471-1.414-.786-2.27-.786-6.741V94.37c0-5.1-1.729-6.985-5.658-6.985h-2.986v22.369H868.2V54.8h13.027c8.941,0,12.8,4.156,12.8,12.643v4.313c0,5.658-1.8,9.342-5.658,11.141,4.313,1.8,5.728,5.972,5.728,11.7v8.469c0,2.672.07,4.628.943,6.671h-8.784Zm-9.43-47.079V79.527h3.388c3.213,0,5.186-1.414,5.186-5.815V68.3c0-3.929-1.327-5.658-4.4-5.658h-4.174Z" transform="translate(-772.226 -54.8)"/>
    <path id="Path_1160" data-name="Path 1160" class="cls-1" d="M1039.114,91.624,1028.2,54.9h9.028l6.6,25.041,6.6-25.041h8.242l-10.914,36.724v18.213h-8.627V91.624Z" transform="translate(-904.286 -54.883)"/>
  </g>
  <rect id="Rectangle_350" data-name="Rectangle 350" class="cls-1" width="10.932" height="5.71" transform="translate(45.996 55.95)"/>
</svg>
